<svg version="1" xmlns="http://www.w3.org/2000/svg" width="2730.667" height="2730.667" viewBox="0 0 2048.000000 2048.000000"><path d="M968 46.1C792.1 56.5 627.4 111.6 481 209 289.7 336.1 147.2 530.3 83.5 750.5 63.8 818.7 52.7 881.2 46.8 958c-1.7 22.3-1.7 110 0 132 2 25.8 5 53.9 7.7 73 20.8 145.3 73.2 282.1 155 404.5 151.1 226.2 387.4 378.7 655.5 423 50.2 8.3 88.9 11.5 145.5 12.2 44.5.5 67.4-.2 102-3.3 366-32.7 683.6-269.4 821-611.9 61.3-152.7 82.8-322 61.9-487.5-26.1-207.2-118.3-400.6-263.5-552.6-95.6-100.1-209.9-178-338.6-230.8-98.5-40.4-204.4-64.1-315.8-70.6-19.6-1.1-89.6-1.1-109.5.1zm118 281.3c50.8 4.7 95.9 13 141.5 26.1 151.7 43.7 284.2 135.2 378 261 36.8 49.3 66.3 102.2 88.8 159 6.2 15.7 14.7 40 14.7 42.1 0 1.2-8.3 1.4-50.3 1.4h-50.4l-3.3-8.8c-7-18.3-26-58.6-33-70l-2-3.2h-101.1c-84.2 0-101 .2-100.6 1.3 4.8 12.4 20.9 68.1 22.4 76.9l.6 3.8-49.4-.2-49.3-.3-1.5-5c-4.1-14.1-18.5-56.3-22.3-65.5l-4.3-10.5-101.8-.3-101.7-.2v82l-47.7-.2-47.8-.3-.3-40.8-.2-40.7-94.3.2-94.2.3L769 758c-4.1 12.4-9.7 30.7-12.4 40.8l-4.9 18.2h-98.9l.6-3.8c2.2-12.1 16.9-68 20.1-76.5.7-1.6-4.2-1.7-97.1-1.5l-97.8.3-5.4 10c-7.4 13.6-19.7 40-26.7 57.2l-5.8 14.3H339.8l.5-2.9c1.1-5.3 12.9-37.5 20-54.1 46.1-109.2 119.1-204.8 213.2-279.1 118.4-93.5 262.2-147.2 416-155.3 16.7-.9 79.9.3 96.5 1.8zM386 911.7c5.8 2.6 10.5 8 14.6 16.8 1.8 3.8 11.4 35.6 21.5 70.5 10 34.9 18.5 63.8 18.8 64.2.4.5 9.2-24.1 19.6-54.5 27.2-79.5 29.2-84.2 39.8-91.2 8.8-5.9 14.8-7.7 27.4-8.3 19.1-.8 30.7 3 40.1 13.3 6.4 7 10.8 17.9 34.3 86.4 10.6 30.9 19.4 55.9 19.6 55.5.1-.5 8.6-29.7 18.7-64.9 10.2-35.2 19.5-66.6 20.7-69.8 2.9-7.6 8.6-13.9 15.7-17.4 5.3-2.6 6.6-2.8 17.7-2.8s12.5.2 18 2.8c10.7 5 15.5 11.1 15.5 19.9 0 7.4-.7 9.5-29 90.8-36.7 105.6-34.6 100.4-43.6 107.2-8.3 6.2-14.1 8-27.4 8.6-17.8.7-30.3-3.6-38.6-13.2-5.2-6-10-18.2-34.5-87.8-12.6-35.8-23-65.2-23.2-65.4-.2-.2-10.1 27.4-22.1 61.4-26.7 75.4-30.5 84.8-36.8 91.7-9.2 10.1-21.2 14.2-39.1 13.2-21.8-1.1-32.1-8.9-40.2-30.5-4.3-11.3-53.1-151.4-56.2-161.2-1.3-4.1-2.4-10.2-2.5-13.6-.4-10.6 6.2-18.3 19.2-22.6 7.7-2.5 25.5-2.1 32 .9zm492.2.5c6.4 3 10.9 8.7 15.1 19.3 1.4 3.3 10.7 34.7 20.8 69.7 10.1 35.1 18.4 63.6 18.5 63.5.1-.1 9.5-27.4 20.9-60.7 11.4-33.3 22.6-64.6 24.9-69.5 9-19.1 22.7-26.2 48.1-25.2 13.9.5 19.6 2.3 28.1 8.7 9.6 7.2 12.1 13.1 39.4 92.8 10.1 29.3 18.6 52.9 19 52.5.3-.4 8.8-29.3 18.8-64.1 10.1-34.8 19.1-65.7 20.3-68.6 5.5-14.9 16.1-21.6 33.9-21.6 17 0 30 7.5 33.1 19.2 1.7 6.4.1 11.9-28.1 93-36 103.4-35.2 101.2-42.5 107.7-8.8 7.7-19.7 10.7-36.3 9.9-12.5-.7-18.7-2.7-26.6-8.6-9.2-7-10.8-10.9-41.7-98.9-11.2-32.1-20.7-58.3-21-58.3-.3 0-9.9 26.4-21.3 58.7-31.5 89-32.5 91.3-42.6 98.7-9.3 6.9-14 8.1-30.5 8-12.1 0-14.8-.3-19.7-2.3-8.4-3.3-16-10.7-20.2-19.5-3.5-7.2-58.5-164.5-61.2-174.6-1.7-6.4-1.8-12.8-.3-16.7 2.3-6.1 11.5-13 20.6-15.3 2.1-.5 8.5-.8 14.3-.6 8.8.2 11.4.6 16.2 2.8zm486.3-1.7c7.6 2 11.5 5 15.9 12.4 4.7 7.6 7.1 15.2 26.7 83.8 9 31.5 16.6 56.9 17 56.5.4-.4 9.7-27 20.7-59.2 24.3-71 26.6-76.5 34-83.2 9.2-8.4 19.3-11.8 34.8-11.8 17 0 26.9 3.4 35.7 12.2 7.2 7.1 10 14.2 34.2 84.3 10.9 31.3 20.1 57.3 20.4 57.7.4.5 8.3-25.6 17.5-58 22.4-78.1 22.7-79 28.8-85.7 7.7-8.5 11.8-10 26.8-10 11.4 0 13 .2 18 2.6 10.4 4.9 15.9 11.8 16 20 0 5.8-3.3 15.9-31.3 96.5-33.7 96.7-31.6 91.4-39.3 99-8.2 8.1-14.1 10.4-28.6 11.1-17.9.9-27.8-2-37.5-11.1-7.3-6.9-9.8-12.9-37.3-91.4-12.4-35.2-22.8-63.5-23.2-62.9-.3.7-10.8 29.9-23.2 65-12.4 35.2-24.4 68.1-26.7 73.3-8.5 19.4-21.1 27.4-43.1 27.4-20.5 0-33-6.6-40.4-21.2-3.1-6-3.9-8.4-36.5-102.2-25-71.8-26.9-77.7-26.9-83.6.1-9.6 9.4-19 21.7-21.9 6.1-1.5 19.4-1.2 25.8.4zM440 1228.2c5.1 14.4 13.4 33.6 22.5 52.5l8.4 17.3h199.9l-2.5-8.3c-3.3-11.2-11.7-45-14.3-57.2-1.2-5.5-2.4-10.8-2.6-11.8-.5-1.6 2.1-1.7 48.7-1.5l49.2.3 5.2 20c4.6 17.9 13.6 48.4 16.4 55.7l1.1 2.8h193v-79h96v79h211.9l2.1-5.8c4.7-12.1 14.9-44.3 18.6-58.4l3.9-14.8h48.8c27.3 0 48.7.4 48.7.9 0 2.2-11.4 45.4-15.9 60.4-2.8 9.2-5.1 17-5.1 17.2 0 .3 46 .4 102.2.3l102.2-.3 6.2-12.5c7.5-15 17.6-38.2 23.5-54.3l4.4-11.7h50.2c34.3 0 50.3.3 50.3 1 0 .6-1.9 6.8-4.1 13.8-55.2 169.7-174.4 312.4-334.5 400.3-78.2 42.9-165.4 71.2-255.4 82.9-53.4 6.9-114.2 7.8-167 2.4-203.4-20.5-386.8-123.5-507.7-285.1-36.4-48.7-66.1-101.9-89.5-160.3-4.7-11.8-18.8-52.3-18.8-54.2 0-.4 22.7-.8 50.4-.8h50.3l3.3 9.2z"/><path d="M1175.6 443.2c56.7 49.9 107.7 115.2 146.8 188l4.7 8.8h88c48.3 0 87.9-.3 87.9-.6 0-2.7-38.2-42.1-57.6-59.4-62.5-56-136.4-98.6-218.4-126-17.2-5.8-53.4-16-56.5-16-.5 0 1.8 2.4 5.1 5.2zM831.5 450.9c-34.8 11.1-59.7 21.3-93.5 38.2-62.2 31.2-116 70.4-164 119.5-15 15.4-28 29.6-28 30.8 0 .3 37.2.5 82.8.4l82.7-.3 7.8-15.5c31.9-63 68.1-113.9 115.1-161.8 9.3-9.4 16.5-17.2 16-17.1-.5 0-9 2.6-18.9 5.8zM1061 558v82h77c75.2 0 77 0 76.1-1.9-.6-1-5.2-8.1-10.4-15.8-30.2-45-66.3-85.7-103.6-117-13.2-11-37.1-29.3-38.3-29.3-.5 0-.8 36.9-.8 82zM955.5 483.2c-48.2 36.7-90.1 84.2-125.9 142.7-4.2 6.9-7.6 12.9-7.6 13.3 0 .4 32.2.8 71.5.8H965v-81.5c0-44.8-.3-81.5-.7-81.5-.5.1-4.4 2.8-8.8 6.2zM543.8 1405.7c65.2 77.5 150.1 138.6 244.3 176.2 18.1 7.1 53 19.1 55.9 19.1.5 0-2.7-3.5-7.1-7.7-30.9-29.5-65.3-74.4-91.8-119.8-8.2-14.1-29.5-55.8-36.4-71.3l-3.6-8.2H533.9l9.9 11.7zM815 1400.1c13.7 27 40.3 67.1 62.5 93.9 10.7 12.9 43.9 45.9 55.5 55.2 9.4 7.5 26.8 20.1 30.3 21.9 1.6.9 1.7-3.6 1.7-88.1v-89H812l3 6.1zM1061 1481.1v87.1l9.8-6.8c61-42.1 111.4-96.7 153.6-166.2.6-.9-16-1.2-81.3-1.2H1061v87.1zM1330.4 1403.2c-37.6 74.8-93.7 147.2-153.2 197.8-6.2 5.2-10.8 9.6-10.3 9.8.6.2 8.8-1.7 18.3-4.2 87.8-23 164.8-61.6 236.3-118.5 28.9-23 70.8-64.8 91.5-91.4l2.1-2.7H1335l-4.6 9.2z"/></svg>